<?xml version="1.0" encoding="utf-8"?>
<!-- Generator: Adobe Illustrator 24.3.0, SVG Export Plug-In . SVG Version: 6.00 Build 0)  -->
<svg version="1.1" id="Layer_1" xmlns="http://www.w3.org/2000/svg" xmlns:xlink="http://www.w3.org/1999/xlink" x="0px" y="0px"
	 viewBox="0 0 512 512" style="enable-background:new 0 0 512 512;" xml:space="preserve">
<style type="text/css">
	.st0{fill:#FFFFFF;}
</style>
<g transform="translate(0.000000,512.000000) scale(0.100000,-0.100000)">
	<path class="st0" d="M361,5109c-172-34-318-182-351-358C-4,4677-4,443,10,369C44,189,189,44,369,10c74-14,3088-14,3162,0
		c180,34,325,179,359,359c6,33,10,313,10,735v680l573,576c530,532,575,580,601,638c58,133,57,259-3,388c-80,170-283,278-466,247
		c-140-24-174-49-452-326l-253-251v611c0,366-4,632-10,664c-23,125-52,163-334,445s-320,311-445,334C3044,5122,425,5122,361,5109z
		 M2700,4429c0-387,0-392,22-431c44-78,45-78,488-78h390v-583v-582l-340-340l-340-340l-115-346c-63-190-115-359-115-375
		c1-69,76-144,145-144c48,0,714,226,742,251l23,22V951c0-513-1-533-20-571c-13-26-34-47-60-60c-39-20-56-20-1570-20
		c-1483,0-1532,1-1568,19c-22,11-46,35-60,59l-22,40v2143v2144l24,39c49,81-51,75,1234,76h1142V4429z M3077,4810
		c37-14,491-466,509-507c8-18,14-44,14-58v-25h-300h-300v300v300h24C3038,4820,3061,4815,3077,4810z M4740,3320c43-22,80-80,80-126
		c0-48-37-107-117-186l-78-78l-108,108l-107,107l82,82c46,45,97,89,113,97C4646,3346,4693,3344,4740,3320z M4050,2355l-360-360
		l-107,108l-108,107l360,360l360,360l107-107l108-108L4050,2355z M3370,1885l105-105l-40-39c-34-33-62-46-194-90
		c-85-28-156-49-158-48c-1,2,20,73,48,158c42,126,58,161,87,192c20,20,39,37,42,37S3312,1943,3370,1885z"/>
	<path class="st0" d="M681,3601c-42-22-81-85-81-130c0-48,38-110,82-132c36-18,77-19,1118-19c1063,0,1081,0,1120,20
		c45,23,80,80,80,130s-35,107-80,130c-39,20-56,20-1122,20C775,3619,713,3618,681,3601z"/>
	<path class="st0" d="M681,3001c-42-22-81-85-81-130c0-48,38-110,82-132c36-18,71-19,818-19c763,0,782,0,820,20c45,23,80,80,80,130
		s-35,107-80,130c-38,20-57,20-822,20C763,3019,713,3018,681,3001z"/>
	<path class="st0" d="M681,2401c-42-22-81-85-81-130c0-48,38-110,82-132c36-18,71-19,818-19c763,0,782,0,820,20c45,23,80,80,80,130
		s-35,107-80,130c-38,20-57,20-822,20C763,2419,713,2418,681,2401z"/>
	<path class="st0" d="M681,1801c-42-22-81-85-81-130c0-48,38-110,82-132c36-18,71-19,818-19c763,0,782,0,820,20c45,23,80,80,80,130
		s-35,107-80,130c-38,20-57,20-822,20C763,1819,713,1818,681,1801z"/>
	<path class="st0" d="M1881,881c-42-22-81-85-81-130c0-48,38-110,82-132c35-18,66-19,518-19c462,0,482,1,520,20c45,23,80,80,80,130
		s-35,107-80,130c-38,19-57,20-522,20C1952,899,1912,898,1881,881z"/>
</g>
</svg>
