<?xml version="1.0" encoding="utf-8"?>
<!-- Generator: Adobe Illustrator 24.3.0, SVG Export Plug-In . SVG Version: 6.00 Build 0)  -->
<svg version="1.1" id="Layer_1" xmlns="http://www.w3.org/2000/svg" xmlns:xlink="http://www.w3.org/1999/xlink" x="0px" y="0px"
	 viewBox="0 0 100 105" style="enable-background:new 0 0 100 105;" xml:space="preserve">
<style type="text/css">
	.st0{fill-rule:evenodd;clip-rule:evenodd;fill:#FFFFFF;}
</style>
<path id="Forma_1" class="st0" d="M74.4,39.1c2.1,0,3.9,1.7,3.9,3.9c0,2.1-1.7,3.9-3.9,3.9s-3.9-1.7-3.9-3.9c0,0,0,0,0,0
	C70.6,40.9,72.3,39.1,74.4,39.1z M83.3,10.2h-5V6.4c0-2.1-1.7-3.9-3.8-3.9c-2.1,0-3.9,1.7-3.9,3.8c0,0,0,0.1,0,0.1v3.9H53V6.4
	c0-2.1-1.8-3.8-3.9-3.8c-2.1,0-3.8,1.7-3.8,3.8v3.9H28V6.4c0-2.1-1.7-3.9-3.9-3.9s-3.9,1.7-3.9,3.9v3.9h-4.8C6.9,10.2,0,17.1,0,25.6
	v60.2c0,8.5,6.9,15.4,15.4,15.4h29.5c2.1,0,3.9-1.7,3.9-3.9s-1.7-3.9-3.9-3.9l0,0H15.4c-4.3,0-7.7-3.5-7.7-7.7V25.6
	c0-4.3,3.5-7.7,7.7-7.7h4.8v3.9c0,2.1,1.7,3.9,3.9,3.9s3.9-1.7,3.9-3.9l0,0v-3.9h17.4v3.9c0,2.1,1.8,3.8,3.9,3.8
	c2.1,0,3.8-1.7,3.8-3.8v-3.9h17.6v3.9c0,2.1,1.7,3.9,3.9,3.9s3.9-1.7,3.9-3.9v-3.9h5c4.3,0,7.7,3.5,7.7,7.7v22
	c0,2.1,1.7,3.9,3.8,3.9c2.1,0,3.9-1.7,3.9-3.8c0,0,0-0.1,0-0.1v-22C98.7,17.1,91.8,10.2,83.3,10.2z M75.4,54.6
	c-12.9,0-23.3,10.4-23.3,23.3s10.4,23.3,23.3,23.3c12.9,0,23.3-10.4,23.3-23.3c0,0,0,0,0,0C98.7,65,88.3,54.6,75.4,54.6z M75.4,93.5
	c-8.6,0-15.6-7-15.6-15.6c0-8.6,7-15.6,15.6-15.6c8.6,0,15.6,7,15.6,15.6c0,0,0,0,0,0C91,86.5,84,93.5,75.4,93.5z M81,74.1h-1.7V70
	c0-2.1-1.7-3.9-3.9-3.9c-2.1,0-3.9,1.7-3.9,3.9v7.9c0,2.1,1.7,3.9,3.9,3.9c0,0,0,0,0,0H81c2.1-0.1,3.8-1.9,3.7-4
	C84.7,75.8,83,74.1,81,74.1z M57.7,39.1c2.1,0,3.9,1.7,3.9,3.9s-1.7,3.9-3.9,3.9c-2.1,0-3.9-1.7-3.9-3.9c0,0,0,0,0,0
	C53.8,40.9,55.5,39.1,57.7,39.1z M40.9,55.9c2.1,0,3.9,1.7,3.9,3.9s-1.7,3.9-3.9,3.9S37,61.9,37,59.8C37,57.7,38.8,55.9,40.9,55.9
	C40.9,55.9,40.9,55.9,40.9,55.9L40.9,55.9z M24.1,39.1c2.1,0,3.9,1.7,3.9,3.9c0,2.1-1.7,3.9-3.9,3.9s-3.9-1.7-3.9-3.9c0,0,0,0,0,0
	C20.3,40.9,22,39.1,24.1,39.1L24.1,39.1z M24.1,55.9c2.1,0,3.9,1.7,3.9,3.9c0,2.1-1.7,3.9-3.9,3.9s-3.9-1.7-3.9-3.9c0,0,0,0,0,0
	C20.3,57.7,22,55.9,24.1,55.9C24.1,55.9,24.1,55.9,24.1,55.9L24.1,55.9z M24.1,72.7c2.1,0,3.9,1.7,3.9,3.9c0,2.1-1.7,3.9-3.9,3.9
	s-3.9-1.7-3.9-3.9S22,72.7,24.1,72.7C24.1,72.7,24.1,72.7,24.1,72.7L24.1,72.7z M40.9,72.7c2.1,0,3.9,1.7,3.9,3.9s-1.7,3.9-3.9,3.9
	c-2.1,0-3.9-1.7-3.9-3.9C37,74.4,38.8,72.7,40.9,72.7C40.9,72.7,40.9,72.7,40.9,72.7L40.9,72.7z M40.9,39.1c2.1,0,3.9,1.7,3.9,3.9
	c0,2.1-1.7,3.9-3.9,3.9c-2.1,0-3.9-1.7-3.9-3.9c0,0,0,0,0,0C37,40.9,38.8,39.1,40.9,39.1L40.9,39.1z"/>
</svg>
