<?xml version="1.0" encoding="utf-8"?>
<!-- Generator: Adobe Illustrator 24.3.0, SVG Export Plug-In . SVG Version: 6.00 Build 0)  -->
<svg version="1.1" id="Layer_1" xmlns="http://www.w3.org/2000/svg" xmlns:xlink="http://www.w3.org/1999/xlink" x="0px" y="0px"
	 viewBox="0 0 16 20" style="enable-background:new 0 0 16 20;" xml:space="preserve">
<style type="text/css">
	.st0{fill-rule:evenodd;clip-rule:evenodd;fill:#0F9E00;}
</style>
<path id="_xD83D__xDD39_-Icon-Color" class="st0" d="M8,19.8c1.1,0,2-0.9,2-2H6C6,18.9,6.9,19.8,8,19.8z M14,13.8v-5
	c0-3.1-1.6-5.6-4.5-6.3V1.8c0-0.8-0.7-1.5-1.5-1.5S6.5,0.9,6.5,1.8v0.7C3.6,3.1,2,5.7,2,8.8v5L0.7,15c-0.6,0.6-0.2,1.7,0.7,1.7h13.2
	c0.9,0,1.3-1.1,0.7-1.7L14,13.8z"/>
</svg>
