<?xml version="1.0" encoding="utf-8"?>
<!-- Generator: Adobe Illustrator 24.3.0, SVG Export Plug-In . SVG Version: 6.00 Build 0)  -->
<svg version="1.1" id="Layer_1" xmlns:svgjs="http://svgjs.com/svgjs"
	 xmlns="http://www.w3.org/2000/svg" xmlns:xlink="http://www.w3.org/1999/xlink" x="0px" y="0px" viewBox="0 0 512 512"
	 style="enable-background:new 0 0 512 512;" xml:space="preserve">
<style type="text/css">
	.st0{fill:none;stroke:#FFFFFF;stroke-width:8;stroke-miterlimit:10;}
</style>
<g>
	<g>
		<path class="st0" d="M336.1,249c-9,0-17.8-2.6-25.4-7.3l-1.8-1.1l-4.3,21.7l31.5,44.1l31.5-44.1l-4.3-21.6l-1.8,1.1
			C353.8,246.4,345,248.9,336.1,249L336.1,249z"/>
		<path class="st0" d="M392,180.5V128h-10.7c-27.8-0.1-53.9-13.2-70.6-35.4L280,123.3v57c0,14.5,7.4,28,19.7,35.6l19.4,12.1
			c10.3,6.5,23.4,6.5,33.8,0.1l19.2-11.8C384.5,208.6,392.1,195.1,392,180.5L392,180.5z M296,160v-16h16v16H296z M336,216
			c-13.5,0-24-8.8-24-20h16c0,1.4,3,4,8,4s8-2.6,8-4h16C360,207.2,349.5,216,336,216z M360,144h16v16h-16V144z"/>
		<path class="st0" d="M408,176h12c6.6,0,12-5.4,12-12v-16c0-6.6-5.4-12-12-12h-12V176z"/>
		<path class="st0" d="M448,448h15.9c-0.5-18.9-2.9-37.6-7.2-56l-18.1,27.4C444.7,427.7,448,437.7,448,448z"/>
		<path class="st0" d="M426.8,408.2l50.8-76.9c0.1-0.1,0.1-0.2,0.2-0.2c3.9-5.4,2.6-12.9-2.8-16.7c-0.8-0.6-1.6-1-2.5-1.4l-0.2-0.1
			c-5.5-2.2-11.8,0-14.8,5.1L413.7,402C418.4,403.4,422.8,405.5,426.8,408.2z"/>
		<path class="st0" d="M378.2,274.7l-35.6,49.9c-2.6,3.6-7.6,4.4-11.2,1.9c-0.7-0.5-1.3-1.1-1.9-1.9l-35.6-49.9
			c-2,1-3.9,2.1-5.8,3.3V414c0,9.9-8.1,18-18,18h-70v16h152c0-25.2,19.5-46.1,44.6-47.9l36.2-69.5C418,305,399.3,285.8,378.2,274.7
			L378.2,274.7z"/>
		<path class="st0" d="M266.3,114.3l40-40c3.1-3.1,8.2-3.1,11.3,0c0.5,0.5,0.9,1,1.2,1.5l0.7,1.2c13.1,21.6,36.5,34.9,61.7,35H400
			c4.4,0,8,3.6,8,8h8V84c0-28.7-23.3-52-52-52h-56c-28.7,0-52,23.3-52,52v36h8C264,117.9,264.8,115.8,266.3,114.3z"/>
		<path class="st0" d="M400,416c-17.7,0-32,14.3-32,32h64C432,430.3,417.7,416,400,416z"/>
		<path class="st0" d="M176,200c0-13.3-10.7-24-24-24s-24,10.7-24,24c0,13.1,10.6,23.8,23.7,24h0.3h0.3
			C165.4,223.8,176,213.1,176,200z M160,208h-16v-16h16V208z"/>
		<path class="st0" d="M141.2,238.9l-3.4,17.1h28.5l-3.4-17.1C155.7,240.4,148.3,240.4,141.2,238.9z"/>
		<path class="st0" d="M134.7,352L120,432.7V448h64v-15.3L169.3,352H134.7z"/>
		<path class="st0" d="M252,176h12v-40h-12c-6.6,0-12,5.4-12,12v16C240,170.6,245.4,176,252,176z"/>
		<path class="st0" d="M32,464h448v16H32V464z"/>
		<path class="st0" d="M34,416h72.8l13.4-73.4c0.7-3.8,4-6.6,7.9-6.6h48c3.9,0,7.2,2.8,7.9,6.6l13.4,73.4H270c1.1,0,2-0.9,2-2V274
			c0-1.1-0.9-2-2-2H34c-1.1,0-2,0.9-2,2v140C32,415.1,32.9,416,34,416z M104,296h96v16h-96V296z"/>
		<path class="st0" d="M152,160c19,0,35.4,13.4,39.2,32c4.4-21.6-9.6-42.8-31.2-47.2c-21.6-4.4-42.8,9.6-47.2,31.2
			c-1.1,5.3-1.1,10.7,0,16C116.6,173.4,133,160,152,160z"/>
	</g>
</g>
</svg>
