<?xml version="1.0"?>
<svg xmlns="http://www.w3.org/2000/svg" xmlns:xlink="http://www.w3.org/1999/xlink" xmlns:svgjs="http://svgjs.com/svgjs" version="1.1" width="512" height="512" x="0" y="0" viewBox="0 0 512.105 512.105" style="enable-background:new 0 0 512 512" xml:space="preserve" class=""><g><g xmlns="http://www.w3.org/2000/svg"><path d="m503.497 146.746c4.143 0 7.5-3.358 7.5-7.5v-41.422c0-1.989-.79-3.897-2.196-5.303l-90.324-90.324c-1.407-1.407-3.315-2.197-5.304-2.197h-240.111c-9.504 0-17.236 7.732-17.236 17.236v477.633c0 9.504 7.732 17.236 17.236 17.236h320.699c9.504 0 17.236-7.732 17.236-17.236v-323.661c0-4.142-3.357-7.5-7.5-7.5s-7.5 3.358-7.5 7.5v323.661c0 1.233-1.003 2.236-2.236 2.236h-320.699c-1.233 0-2.236-1.003-2.236-2.236v-477.633c0-1.233 1.003-2.236 2.236-2.236h232.281v66.059c0 13.198 10.737 23.935 23.935 23.935h66.72v34.251c-.001 4.143 3.357 7.501 7.499 7.501zm-83.154-65.687v-55.783l64.718 64.718h-55.783c-4.927 0-8.935-4.008-8.935-8.935z" fill="#ffffff" data-original="#ffffff" style="" class=""/><path d="m368.158 48.61c4.143 0 7.5-3.358 7.5-7.5s-3.357-7.5-7.5-7.5h-161.203c-6.643 0-12.047 5.404-12.047 12.047v76.391c0 6.643 5.404 12.047 12.047 12.047h196.891c4.143 0 7.5-3.358 7.5-7.5s-3.357-7.5-7.5-7.5h-193.938v-70.485z" fill="#ffffff" data-original="#ffffff" style="" class=""/><path d="m193.019 195.879c-2.182 3.521-1.095 8.144 2.427 10.325l11.05 6.843c1.226.759 2.592 1.124 3.944 1.124 2.275 0 4.514-1.034 5.979-2.967l23.104-30.451c2.504-3.299 1.858-8.004-1.441-10.508-3.301-2.505-8.006-1.858-10.508 1.441l-18.98 25.016-5.25-3.251c-3.522-2.18-8.145-1.093-10.325 2.428z" fill="#ffffff" data-original="#ffffff" style="" class=""/><path d="m454.047 189.817h-193.375c-4.143 0-7.5 3.358-7.5 7.5s3.357 7.5 7.5 7.5h193.375c4.143 0 7.5-3.358 7.5-7.5s-3.357-7.5-7.5-7.5z" fill="#ffffff" data-original="#ffffff" style="" class=""/><path d="m195.446 267.504 11.05 6.843c1.226.759 2.592 1.124 3.944 1.124 2.275 0 4.514-1.034 5.979-2.967l23.104-30.451c2.504-3.299 1.858-8.004-1.441-10.508-3.301-2.505-8.006-1.858-10.508 1.441l-18.98 25.016-5.25-3.251c-3.522-2.18-8.145-1.094-10.325 2.428-2.182 3.521-1.095 8.144 2.427 10.325z" fill="#ffffff" data-original="#ffffff" style="" class=""/><path d="m461.547 258.616c0-4.142-3.357-7.5-7.5-7.5h-193.375c-4.143 0-7.5 3.358-7.5 7.5s3.357 7.5 7.5 7.5h193.375c4.143 0 7.5-3.358 7.5-7.5z" fill="#ffffff" data-original="#ffffff" style="" class=""/><path d="m323.287 471.552c48.556 0 88.059-39.503 88.059-88.059s-39.503-88.059-88.059-88.059c-15.144 0-30.103 3.93-43.259 11.366-3.605 2.038-4.877 6.613-2.839 10.219s6.612 4.877 10.22 2.839c10.909-6.166 23.315-9.424 35.878-9.424 40.284 0 73.059 32.774 73.059 73.059s-32.774 73.059-73.059 73.059-73.06-32.774-73.06-73.059c0-16.17 5.188-31.5 15.004-44.333 2.517-3.29 1.89-7.997-1.4-10.514-3.292-2.518-7.997-1.889-10.514 1.4-11.835 15.471-18.09 33.953-18.09 53.446.001 48.557 39.504 88.06 88.06 88.06z" fill="#ffffff" data-original="#ffffff" style="" class=""/><path d="m292.62 420.532 9.898-29.539h41.538l9.897 29.539c1.051 3.137 3.975 5.12 7.11 5.119.79 0 1.594-.126 2.384-.391 3.928-1.316 6.045-5.566 4.729-9.494l-11.561-34.502c0-.002-.001-.003-.001-.004l-11.743-35.046c-3.113-9.29-11.787-15.531-21.584-15.531-9.798 0-18.473 6.242-21.584 15.531l-11.737 35.028c-.003.01-.007.02-.01.03l-11.559 34.495c-1.316 3.927.801 8.178 4.729 9.494 3.925 1.318 8.178-.802 9.494-4.729zm30.667-74.849c3.341 0 6.3 2.129 7.361 5.297l8.381 25.014h-31.486l8.382-25.014c1.063-3.169 4.021-5.297 7.362-5.297z" fill="#ffffff" data-original="#ffffff" style="" class=""/><path d="m104.94 80.341v-11.55c0-14.986-12.191-27.178-27.178-27.178s-27.178 12.192-27.178 27.178v11.551c-9.628 5.148-16.195 15.299-16.195 26.959v4.084l-25.271 20.149c-5.091 4.059-8.011 10.121-8.011 16.632v104.58c0 4.142 3.357 7.5 7.5 7.5s7.5-3.358 7.5-7.5v-104.58c0-1.919.861-3.707 2.362-4.904l15.919-12.693v267.62c0 1.52.462 3.003 1.323 4.254l31.651 45.954c2.355 3.422 6.242 5.465 10.397 5.465h.001c4.154 0 8.042-2.042 10.399-5.464l31.651-45.955c.861-1.251 1.323-2.735 1.323-4.254v-47.717c0-4.142-3.357-7.5-7.5-7.5s-7.5 3.358-7.5 7.5v33.424h-56.744v-95.916h56.747v30.531c0 4.142 3.357 7.5 7.5 7.5s7.5-3.358 7.5-7.5v-211.21c0-11.66-6.568-21.812-16.196-26.96zm-39.356-11.55c0-6.715 5.463-12.178 12.178-12.178s12.178 5.463 12.178 12.178v7.958h-24.356zm-.643 22.958h25.643c8.576 0 15.553 6.977 15.553 15.552v16.482h-56.748v-16.482c0-8.576 6.976-15.552 15.552-15.552zm12.822 345.304-26.28-38.156h52.56zm-28.374-164.073v-134.197h56.747v134.197z" fill="#ffffff" data-original="#ffffff" style="" class=""/><path d="m80.367 152.721c-4.143 0-7.5 3.358-7.5 7.5v28.778c0 4.142 3.357 7.5 7.5 7.5s7.5-3.358 7.5-7.5v-28.778c0-4.142-3.357-7.5-7.5-7.5z" fill="#ffffff" data-original="#ffffff" style="" class=""/><path d="m80.367 214.015c-4.143 0-7.5 3.358-7.5 7.5v7.475c0 4.142 3.357 7.5 7.5 7.5s7.5-3.358 7.5-7.5v-7.475c0-4.142-3.357-7.5-7.5-7.5z" fill="#ffffff" data-original="#ffffff" style="" class=""/></g></g></svg>
