<?xml version="1.0"?>
<svg xmlns="http://www.w3.org/2000/svg" xmlns:xlink="http://www.w3.org/1999/xlink" xmlns:svgjs="http://svgjs.com/svgjs" version="1.1" width="512" height="512" x="0" y="0" viewBox="0 0 512 512" style="enable-background:new 0 0 512 512" xml:space="preserve" class=""><g><g xmlns="http://www.w3.org/2000/svg"><path d="m336.107 248.951a47.918 47.918 0 0 1 -25.439-7.349l-1.8-1.128-4.34 21.7 31.472 44.062 31.476-44.066-4.314-21.57-1.8 1.114a47.914 47.914 0 0 1 -25.255 7.237z" fill="#1d83e8" data-original="#000000" style="" class=""/><path d="m392 180.545v-52.545h-10.7a88.512 88.512 0 0 1 -70.558-35.423l-30.742 30.737v56.974a41.758 41.758 0 0 0 19.74 35.612l19.408 12.131a31.805 31.805 0 0 0 33.795.078l19.157-11.845a41.738 41.738 0 0 0 19.9-35.719zm-96-20.545v-16h16v16zm40 56c-13.458 0-24-8.785-24-20h16c0 1.41 3.037 4 8 4s8-2.59 8-4h16c0 11.215-10.542 20-24 20zm24-72h16v16h-16z" fill="#1d83e8" data-original="#000000" style="" class=""/><path d="m408 176h12a12.013 12.013 0 0 0 12-12v-16a12.013 12.013 0 0 0 -12-12h-12z" fill="#1d83e8" data-original="#000000" style="" class=""/><path d="m448 448h15.892a274.324 274.324 0 0 0 -7.212-56l-18.123 27.444a47.745 47.745 0 0 1 9.443 28.556z" fill="#1d83e8" data-original="#000000" style="" class=""/><path d="m426.807 408.2 50.785-76.907c.054-.082.109-.162.166-.242a12 12 0 0 0 -5.309-18.116l-.2-.079a12.048 12.048 0 0 0 -14.8 5.074l-43.749 84.06a47.823 47.823 0 0 1 13.107 6.21z" fill="#1d83e8" data-original="#000000" style="" class=""/><path d="m378.156 274.744-35.646 49.906a8 8 0 0 1 -13.02 0l-35.644-49.9q-2.946 1.55-5.846 3.322v135.928a18.021 18.021 0 0 1 -18 18h-70v16h152a48.063 48.063 0 0 1 44.63-47.882l36.17-69.475c-14.78-25.625-33.531-44.795-54.644-55.899z" fill="#1d83e8" data-original="#000000" style="" class=""/><path d="m266.343 114.343 40-40a8 8 0 0 1 12.517 1.541l.7 1.159a72.363 72.363 0 0 0 61.74 34.957h18.7a8 8 0 0 1 8 8h8v-36a52.059 52.059 0 0 0 -52-52h-56a52.059 52.059 0 0 0 -52 52v36h8a8 8 0 0 1 2.343-5.657z" fill="#1d83e8" data-original="#000000" style="" class=""/><path d="m400 416a32.036 32.036 0 0 0 -32 32h64a32.036 32.036 0 0 0 -32-32z" fill="#1d83e8" data-original="#000000" style="" class=""/><path d="m176 200a24 24 0 1 0 -24.312 24h.312.312a24.027 24.027 0 0 0 23.688-24zm-16 8h-16v-16h16z" fill="#1d83e8" data-original="#000000" style="" class=""/><path d="m141.169 238.949-3.411 17.051h28.484l-3.411-17.051a56.335 56.335 0 0 1 -21.662 0z" fill="#1d83e8" data-original="#000000" style="" class=""/><path d="m134.677 352-14.677 80.721v15.279h64v-15.279l-14.677-80.721z" fill="#1d83e8" data-original="#000000" style="" class=""/><path d="m252 176h12v-40h-12a12.013 12.013 0 0 0 -12 12v16a12.013 12.013 0 0 0 12 12z" fill="#1d83e8" data-original="#000000" style="" class=""/><path d="m32 464h448v16h-448z" fill="#1d83e8" data-original="#000000" style="" class=""/><path d="m34 416h72.778l13.351-73.431a8 8 0 0 1 7.871-6.569h48a8 8 0 0 1 7.871 6.569l13.351 73.431h72.778a2 2 0 0 0 2-2v-140a2 2 0 0 0 -2-2h-236a2 2 0 0 0 -2 2v140a2 2 0 0 0 2 2zm70-120h96v16h-96z" fill="#1d83e8" data-original="#000000" style="" class=""/><path d="m152 160a40.068 40.068 0 0 1 39.2 32 40 40 0 1 0 -78.392 0 40.068 40.068 0 0 1 39.192-32z" fill="#1d83e8" data-original="#000000" style="" class=""/></g></g></svg>
