<?xml version="1.0"?>
<svg xmlns="http://www.w3.org/2000/svg" xmlns:xlink="http://www.w3.org/1999/xlink" xmlns:svgjs="http://svgjs.com/svgjs" version="1.1" width="512" height="512" x="0" y="0" viewBox="0 0 512 512" style="enable-background:new 0 0 512 512" xml:space="preserve" class=""><g><g xmlns="http://www.w3.org/2000/svg"><path d="m133.262 343.437h-84.512c-4.142 0-7.5 3.358-7.5 7.5s3.358 7.5 7.5 7.5h84.512c4.142 0 7.5-3.358 7.5-7.5s-3.358-7.5-7.5-7.5zm371.238-19.844h-156.996l-93.893-13.681c-5.66-.804-10.131-5.68-10.451-11.373-.362-6.447 4.277-12.117 10.723-12.888l48.755-5.923c20.56-2.504 36.543-19.012 39.894-39.473 2.887-17.63-4.831-35.455-19.664-45.411-2.806-1.882-5.827-3.441-8.974-4.662l21.366-37.009h11.17c7.731 0 15.296 3.134 20.758 8.604l20.123 20.12c2.929 2.928 7.678 2.928 10.606-.001 2.929-2.929 2.929-7.678-.001-10.606l-20.119-20.115c-8.25-8.262-19.683-13-31.367-13h-2.51l20.056-34.74h93.305c5.359 0 9.72 4.387 9.72 9.78v105.04h-7.54c-9.405 0-18.239-3.658-24.877-10.304l-11.8-11.797c-2.931-2.93-7.68-2.928-10.606.001-2.929 2.929-2.929 7.678.001 10.606l11.796 11.794c9.468 9.479 22.07 14.7 35.486 14.7h45.04c4.143 0 7.5-3.358 7.5-7.5s-3.357-7.5-7.5-7.5h-22.501v-105.04c0-13.664-11.089-24.78-24.72-24.78h-84.645l4.026-6.974c8.598-14.74 3.156-34.374-11.462-42.802-14.867-8.571-34.332-3.344-42.794 11.466l-22.118 38.31h-10.077c-21.037 0-39.421 11.553-49.21 28.656-9.789-17.102-28.173-28.656-49.21-28.656h-167.07c-13.631-.002-24.72 11.115-24.72 24.778v339.484c0 13.661 11.09 24.775 24.723 24.775h432.555c13.632 0 24.723-11.114 24.723-24.775v-114.104h22.5c4.143 0 7.5-3.358 7.5-7.5s-3.358-7.5-7.501-7.5zm-194.015 9.764 23.306 3.396c-.337 6.929-5.883 13.035-13.209 12.216-7.792-.87-11.736-8.496-10.097-15.612zm-38.166-5.561 23.313 3.397c-.207 7.375-5.157 14.409-13.361 13.497-8.256-.919-11.991-9.449-9.952-16.894zm42.192-120.496c9.97 6.693 15.158 18.677 13.217 30.539-2.273 13.889-12.728 25.304-26.902 26.999l-32.3 3.927 37.735-65.362c2.915.884 5.711 2.195 8.25 3.897zm20.885-149.678c4.396-7.731 14.584-10.424 22.308-5.972 7.662 4.417 10.455 14.634 5.971 22.303l-12.144 21.034-28.28-16.328zm-19.645 34.028 28.281 16.328-94.193 163.153c-12.519 2.586-21.699 13.657-21.699 26.642 0 2.872.464 5.835 1.365 8.556l-9.461 16.397-28.276-16.325 31.858-55.181c.008-.014.016-.028.024-.042zm-106.996 241.879c-.227-.376-22.879 15.183-22.879 15.183l2.176-27.136zm39.745-188.236c-.003-23.637 19.605-42.609 43.128-41.86l-21.904 37.94c-5.537 2.226-10.626 5.566-14.848 9.787l-6.376 6.376zm-.839 34.296-34.761 60.211c-8.773-2.034-11.863-13.586-5.596-19.853 1.33-1.331 39.127-39.128 40.357-40.358zm-14.161 224.127c-9.683-10.006-23.236-16.244-38.227-16.244h-102.837c-4.142 0-7.5 3.358-7.5 7.5s3.358 7.5 7.5 7.5h102.837c21.079 0 38.227 17.148 38.227 38.227v21.773h-208.777c-5.361 0-9.723-4.385-9.723-9.775v-50.225h42.436c4.142 0 7.5-3.358 7.5-7.5s-3.358-7.5-7.5-7.5h-42.436v-274.259c0-5.393 4.36-9.78 9.72-9.78h167.07c22.999 0 41.71 18.778 41.71 41.86v27.243l-36.803 36.803c-13.365 13.069-8.617 36.447 8.577 43.667l-27.771 48.103c-2.164 3.729-3.5 8.075-3.849 12.354l-2.73 34.056c-.472 5.944 2.443 11.488 7.607 14.466 5.152 2.972 11.41 2.732 16.326-.657l27.405-18.89c2.634 4.421 6.524 8.033 11.239 10.329v50.949zm10.467-63.306c-5.811-.652-10.142-5.372-10.433-11.049l5.605-9.714c3.576 2.658 7.792 4.45 12.31 5.108l6.02.877-.492 4.389c-.721 6.448-6.56 11.111-13.01 10.389zm223.033 112.287c0 5.39-4.361 9.775-9.723 9.775h-208.777v-21.773c0-21.079 17.148-38.227 38.228-38.227h180.272zm0-65.225h-180.272c-14.991 0-28.544 6.239-38.228 16.245v-48.452c5.179-.631 9.973-2.742 13.861-5.966 4.46 5.806 10.964 9.486 18.249 10.298 7.253.809 14.649-1.507 20.053-6.019 4.46 5.804 10.966 9.486 18.249 10.299 15.017 1.676 28.911-10.145 29.767-25.283h118.321zm-418.25-186.535h129.512c4.142 0 7.5-3.358 7.5-7.5s-3.358-7.5-7.5-7.5h-129.512c-4.142 0-7.5 3.358-7.5 7.5s3.358 7.5 7.5 7.5zm0-52.5h144.512c4.142 0 7.5-3.358 7.5-7.5s-3.358-7.5-7.5-7.5h-144.512c-4.142 0-7.5 3.358-7.5 7.5s3.358 7.5 7.5 7.5zm99.512 142.5h-99.512c-4.142 0-7.5 3.358-7.5 7.5s3.358 7.5 7.5 7.5h99.512c4.142 0 7.5-3.358 7.5-7.5s-3.358-7.5-7.5-7.5zm15-52.5h-114.512c-4.142 0-7.5 3.358-7.5 7.5s3.358 7.5 7.5 7.5h114.512c4.142 0 7.5-3.358 7.5-7.5s-3.358-7.5-7.5-7.5z" fill="#1d83e8" data-original="#000000" style="" class=""/></g></g></svg>
