<?xml version="1.0"?>
<svg xmlns="http://www.w3.org/2000/svg" xmlns:xlink="http://www.w3.org/1999/xlink" xmlns:svgjs="http://svgjs.com/svgjs" version="1.1" width="512" height="512" x="0" y="0" viewBox="0 0 479 480" style="enable-background:new 0 0 512 512" xml:space="preserve" class=""><g><path xmlns="http://www.w3.org/2000/svg" d="m438.15625 0h-272c-13.253906 0-24 10.746094-24 24v128h16v-128c0-4.417969 3.582031-8 8-8h208v56c0 3.234375 1.949219 6.152344 4.9375 7.390625s6.429688.550781 8.71875-1.734375l10.34375-10.34375 10.34375 10.34375c2.289062 2.285156 5.726562 2.972656 8.71875 1.734375 2.988281-1.238281 4.9375-4.15625 4.9375-7.390625v-56h16c4.417969 0 8 3.582031 8 8v384c0 4.417969-3.582031 8-8 8h-168v16h168c13.253906 0 24-10.746094 24-24v-384c0-13.253906-10.746094-24-24-24zm-32 52.6875-2.34375-2.34375c-3.125-3.121094-8.1875-3.121094-11.3125 0l-2.34375 2.34375v-36.6875h16zm0 0" fill="#1d83e8" data-original="#000000" style=""/><path xmlns="http://www.w3.org/2000/svg" d="m190.15625 128h176v16h-176zm0 0" fill="#1d83e8" data-original="#000000" style=""/><path xmlns="http://www.w3.org/2000/svg" d="m382.15625 128h32v16h-32zm0 0" fill="#1d83e8" data-original="#000000" style=""/><path xmlns="http://www.w3.org/2000/svg" d="m190.15625 160h224v16h-224zm0 0" fill="#1d83e8" data-original="#000000" style=""/><path xmlns="http://www.w3.org/2000/svg" d="m270.15625 80h64v16h-64zm0 0" fill="#1d83e8" data-original="#000000" style=""/><path xmlns="http://www.w3.org/2000/svg" d="m286.15625 48h32v16h-32zm0 0" fill="#1d83e8" data-original="#000000" style=""/><path xmlns="http://www.w3.org/2000/svg" d="m302.15625 312c17.671875 0 32-14.328125 32-32s-14.328125-32-32-32-32 14.328125-32 32 14.328125 32 32 32zm0-48c8.835938 0 16 7.164062 16 16s-7.164062 16-16 16-16-7.164062-16-16 7.164062-16 16-16zm0 0" fill="#1d83e8" data-original="#000000" style=""/><path xmlns="http://www.w3.org/2000/svg" d="m270.15625 376c0 2.949219 1.625 5.664062 4.226562 7.054688 2.601563 1.390624 5.757813 1.238281 8.214844-.398438l19.558594-13.054688 19.558594 13.039063c2.453125 1.636719 5.605468 1.789063 8.207031.402344s4.230469-4.09375 4.234375-7.042969v-50.113281c20.078125-13.980469 28.757812-39.378907 21.429688-62.726563-7.328126-23.34375-28.960938-39.230468-53.429688-39.230468s-46.101562 15.886718-53.429688 39.230468c-7.328124 23.347656 1.351563 48.746094 21.429688 62.726563zm48-14.953125-11.558594-7.703125c-2.691406-1.792969-6.195312-1.792969-8.882812 0l-11.558594 7.703125v-27.40625c10.433594 3.144531 21.566406 3.144531 32 0zm-56-81.046875c0-22.089844 17.910156-40 40-40s40 17.910156 40 40-17.910156 40-40 40c-22.082031-.027344-39.972656-17.917969-40-40zm0 0" fill="#1d83e8" data-original="#000000" style=""/><path xmlns="http://www.w3.org/2000/svg" d="m212.898438 382.601562-46.742188-12.714843v-12.109375c14.984375-10.433594 23.941406-27.519532 24-45.777344v-15.144531c2.039062-.933594 3.328125-1.597657 3.574219-1.695313 2.714843-1.355468 4.425781-4.128906 4.425781-7.160156v-48l42.871094-16.488281c3.097656-1.183594 5.140625-4.15625 5.140625-7.472657 0-3.316406-2.042969-6.285156-5.140625-7.472656l-104-40c-1.847656-.703125-3.894532-.703125-5.742188 0l-104 40c-3.078125 1.183594-5.113281 4.136719-5.128906 7.433594v36.6875l-21.65625 21.65625 11.3125 11.3125 10.34375-10.34375v12.6875h16v-12.6875l10.34375 10.34375 11.3125-11.3125-21.65625-21.65625v-25.039062l32 12.351562v48c-.015625 3.046875 1.699219 5.839844 4.421875 7.199219.25.121093 1.539063.761719 3.578125 1.695312v15.105469c-.140625 18.3125 8.859375 35.492188 24 45.800781v12.085938l-46.769531 12.722656c-24.300781 6.730469-41.152344 28.8125-41.230469 54.03125v35.359375c0 4.417969 3.582031 8 8 8h224c4.417969 0 8-3.582031 8-8v-35.359375c-.082031-25.226563-16.945312-47.316406-41.257812-54.039063zm-94.742188-6.601562v-10.398438c10.425781 3.207032 21.574219 3.207032 32 0v10.398438c.023438 2.292969 1.042969 4.460938 2.792969 5.945312l-18.792969 15.65625-18.792969-15.648437c1.75-1.484375 2.769531-3.65625 2.792969-5.953125zm16-191.433594 81.710938 31.433594-81.710938 31.433594-81.710938-31.433594zm-2.871094 78.90625c1.847656.703125 3.894532.703125 5.742188 0l45.128906-17.359375v36.796875c-15.070312 7.25-31.335938 11.6875-48 13.089844-16.664062-1.414062-32.929688-5.851562-48-13.097656v-36.796875zm-37.128906 48.527344v-8.585938c12.769531 5.042969 26.285156 7.945313 40 8.585938 13.714844-.640625 27.230469-3.542969 40-8.585938v8.585938c-.019531 14.292969-7.664062 27.492188-20.054688 34.621094-12.390624 7.128906-27.644531 7.101562-40.007812-.070313-3.019531-1.714843-5.785156-3.839843-8.226562-6.3125-7.542969-7.453125-11.761719-17.632812-11.710938-28.238281zm144 152h-24v-32h-16v32h-128v-32h-16v32h-24v-27.359375c.058594-18.015625 12.101562-33.792969 29.464844-38.601563l37.734375-10.269531 31.679687 26.398438c2.96875 2.46875 7.273438 2.46875 10.242188 0l31.679687-26.398438 37.710938 10.261719c17.371093 4.804688 29.421875 20.585938 29.488281 38.609375zm0 0" fill="#1d83e8" data-original="#000000" style=""/></g></svg>
