<?xml version="1.0"?>
<svg xmlns="http://www.w3.org/2000/svg" xmlns:xlink="http://www.w3.org/1999/xlink" xmlns:svgjs="http://svgjs.com/svgjs" version="1.1" width="512" height="512" x="0" y="0" viewBox="0 0 496 496" style="enable-background:new 0 0 512 512" xml:space="preserve" class=""><g><path xmlns="http://www.w3.org/2000/svg" d="m464 304h-112v-32.246094c2.664062.15625 5.335938.246094 8 .246094 74.992188 0 136-61.007812 136-136s-61.007812-136-136-136c-61.070312 0-112.855469 40.472656-129.976562 96h-230.023438v336h64v64h288v-96h72c13.230469 0 24-10.769531 24-24 0-2.824219-.574219-5.496094-1.480469-8.015625l17.480469.015625c17.648438 0 32-14.351562 32-32s-14.351562-32-32-32zm-208 48v-32h144v32zm-16-2.246094-46.296875-11.578125c-1-.246093-1.703125-1.144531-1.703125-2.175781s.703125-1.929688 1.695312-2.175781l46.304688-11.578125zm72.566406-275.929687-18.664062-29.863281c-1.140625-1.832032-2.46875-3.5625-3.832032-5.28125 13.929688-10.039063 30.050782-17.183594 47.546876-20.503907-1.050782 4.273438-1.617188 8.664063-1.617188 13.082031 0 22.902344 14.40625 43.6875 35.855469 51.734376l17.898437 6.703124c7.054688 2.648438 12.148438 8.648438 13.628906 16.03125 3.511719 17.546876 19.050782 30.273438 36.929688 30.273438 13.75 0 27.273438-3.601562 39.167969-10.3125.289062 3.410156.519531 6.832031.519531 10.3125 0 6.359375-.640625 12.550781-1.601562 18.640625-5.984376-1.695313-12.125-2.640625-18.398438-2.640625h-18.550781c-22.503907 0-42.753907-12.503906-52.824219-32.648438-4.746094-9.472656-14.265625-15.351562-24.847656-15.351562-15.3125 0-27.777344 12.464844-27.777344 27.777344v28.222656h-52.097656c2.800781-5.320312 6.914062-9.960938 12.378906-13.238281 14.628906-8.777344 23.71875-24.832031 23.71875-41.898438v-5.144531c0-9.160156-2.566406-18.117188-7.433594-25.894531zm39.433594 181.894531v-45.816406c5.726562 3.839844 12.601562 6.097656 20 6.097656 11.03125 0 20 8.976562 20 20 0 5.121094.710938 10.136719 1.976562 15.023438-10.785156 3.191406-22.167968 4.976562-33.976562 4.976562-2.664062 0-5.335938-.105469-8-.28125zm57.078125-10.328125c-.671875-3.070313-1.078125-6.199219-1.078125-9.390625 0-19.847656-16.152344-36-36-36-11.03125 0-20-8.976562-20-20v-48.222656c0-6.488282 5.28125-11.777344 11.785156-11.777344 4.488282 0 8.519532 2.496094 10.527344 6.511719 12.800781 25.59375 38.519531 41.488281 67.136719 41.488281h18.550781c5.097656 0 10.097656.792969 14.953125 2.265625-10.023437 33.550781-34.34375 60.917969-65.875 75.125zm67.625-136.855469c-10.640625 7.410156-23.375 11.464844-36.390625 11.464844-10.289062 0-19.214844-7.320312-21.234375-17.40625-2.574219-12.851562-11.4375-23.265625-23.703125-27.875l-17.894531-6.710938c-15.25-5.710937-25.480469-20.488281-25.480469-36.75 0-5.152343 1.054688-10.257812 3.023438-15 1.664062-.074218 3.296874-.257812 4.976562-.257812 56.710938 0 104.238281 39.585938 116.703125 92.535156zm-198.96875-59.671875c.914063 1.167969 1.824219 2.335938 2.601563 3.570313l18.664062 29.863281c3.273438 5.238281 5 11.261719 5 17.421875v5.144531c0 11.480469-6.113281 22.28125-16.28125 28.375-10.160156 6.105469-17.628906 15.648438-21.253906 26.761719h-24.023438c-1.601562-7.855469-2.441406-15.902344-2.441406-24 0-34.320312 14.558594-65.238281 37.734375-87.136719zm-186.421875 175.136719 36.6875-36.6875v36.6875zm20.6875 16h32v-32h160v64h-192zm20.6875-80-48 48h-36.6875v-64h176.246094c.3125 5.375.960937 10.71875 1.90625 16zm-116.6875 256v-304h210.246094c-.933594 5.230469-1.527344 10.574219-1.847656 16h-192.398438v96h36.6875l-4.6875 4.6875v11.3125h-32v16h32v16h-32v16h32v16h-32v16h32v16h-32v16h32v16h-32v16h32v32zm416-40c0 4.40625-3.585938 8-8 8h-104v16h16v80h-256v-240h16v48h224v-96h-176v-16h192v128h-88l-58.183594 14.296875c-8.136718 2.039063-13.816406 9.320313-13.816406 17.703125s5.679688 15.664062 13.824219 17.703125l56.238281 14.058594 177.9375.199219v.039062c4.414062 0 8 3.59375 8 8zm32-24h-48v-32h48c8.824219 0 16 7.175781 16 16s-7.175781 16-16 16zm0 0" fill="#1d83e8" data-original="#000000" style="" class=""/><path xmlns="http://www.w3.org/2000/svg" d="m96 304h64v16h-64zm0 0" fill="#1d83e8" data-original="#000000" style="" class=""/><path xmlns="http://www.w3.org/2000/svg" d="m96 336h64v16h-64zm0 0" fill="#1d83e8" data-original="#000000" style="" class=""/><path xmlns="http://www.w3.org/2000/svg" d="m96 464h112v-96h-112zm16-80h80v64h-80zm0 0" fill="#1d83e8" data-original="#000000" style="" class=""/><path xmlns="http://www.w3.org/2000/svg" d="m224 448h96v16h-96zm0 0" fill="#1d83e8" data-original="#000000" style="" class=""/><path xmlns="http://www.w3.org/2000/svg" d="m224 416h96v16h-96zm0 0" fill="#1d83e8" data-original="#000000" style="" class=""/><path xmlns="http://www.w3.org/2000/svg" d="m224 384h80v16h-80zm0 0" fill="#1d83e8" data-original="#000000" style="" class=""/></g></svg>
